<svg xmlns="http://www.w3.org/2000/svg" xmlns:xlink="http://www.w3.org/1999/xlink" viewBox="0 0 113 42" fill="#fff" fill-rule="evenodd" stroke="#000" stroke-linecap="round" stroke-linejoin="round"><style><![CDATA[.B{fill-rule:nonzero}]]></style><use xlink:href="#D" x=".5" y=".5"/><defs><linearGradient id="A" x1="19.68%" y1="119.30%" x2="69.89%" y2="44.82%"><stop offset="0%" stop-color="#1a237e" stop-opacity=".4"/><stop offset="1%" stop-color="#1a237e" stop-opacity="0"/></linearGradient><radialGradient id="B" cx="3%" cy="7%" r="135%" fx="3%" fy="7%"><stop offset="0%" stop-color="#fff" stop-opacity=".1"/><stop offset="1%" stop-color="#fff" stop-opacity="0"/></radialGradient><path id="C" d="M75.443 29.762q-.812 0-1.518-.262-.68-.262-1.152-.707-.524-.497-.785-1.152-.262-.654-.262-1.597v-7.827h-2.33v-2.016h2.33v-3.77h2.225v3.77h3.246v2.016h-3.246v7.278q0 1.1.42 1.623.497.576 1.44.576.76 0 1.466-.445v2.173q-.393.183-.812.262-.393.08-1.02.08z"/></defs><symbol id="D" overflow="visible"><g stroke="none"><path d="M15.504 35.667l17.057-17.061H20.159L9.305 29.464zM0 20.159L20.159 0h12.403L6.203 26.362z" fill="#39cefd" class="B"/><path d="M20.158 40.318h12.403L21.707 29.464l-6.203 6.203z" fill="#03569b" class="B"/><path d="M21.707 29.464l-6.203 6.203 9.2-3.187z" fill="url(#A)" class="B"/><path d="M9.304 29.461l6.203-6.203 6.204 6.203-6.204 6.203z" fill="#16b9fd" class="B"/><path d="M32.561 18.606L21.708 29.464l10.854 10.858H20.159L9.301 29.464l10.858-10.858h12.403zM20.159 0L0 20.159l6.203 6.203L32.561 0H20.159z" fill="url(#B)" class="B"/><g fill="gray"><path d="M36.499 10.808h10.84v2.12h-8.64v6.414h7.8v2.094h-7.8v8.115h-2.2V10.808zm13.463 0h2.225v18.744h-2.225V10.808zm10.365 19.163q-2.408 0-3.7-1.414-1.248-1.423-1.248-3.953v-8.403h2.225v8.063q0 1.9.864 2.8.864.9 2.33.9 1.126 0 2-.602.9-.602 1.36-1.57.497-.97.497-2.042v-7.54h2.224v13.35h-2.12v-1.946h-.105q-.55.995-1.754 1.675-1.204.68-2.566.68z" class="B"/><use xlink:href="#C" class="B"/><use xlink:href="#C" x="9.436" class="B"/><path d="M94.679 29.971q-1.9 0-3.43-.916-1.518-.916-2.382-2.513-.838-1.623-.838-3.64 0-1.937.785-3.56.812-1.623 2.278-2.592 1.466-.97 3.403-.97 1.963 0 3.403.9 1.44.864 2.2 2.408.785 1.545.785 3.534 0 .393-.08.68h-10.55q.08 1.518.733 2.566.654 1.047 1.65 1.57 1.02.524 2.12.524 2.566 0 3.953-2.408l1.885.916q-.864 1.623-2.356 2.566-1.466.942-3.56.942zm3.848-8.508q-.052-.838-.47-1.675-.42-.838-1.335-1.414-.9-.576-2.25-.576-1.57 0-2.67 1.02-1.073.995-1.414 2.644h8.142zm4.934-5.262h2.12v2.147h.105q.393-1.1 1.518-1.806 1.126-.733 2.356-.733.916 0 1.57.262v2.408q-.838-.42-1.885-.42-.97 0-1.78.55-.812.55-1.3 1.492-.47.916-.47 2v7.46h-2.225v-13.35z" class="B"/></g></g></symbol></svg>