<svg width="20" height="9" viewBox="0 0 20 9" fill="none" xmlns="http://www.w3.org/2000/svg">
<path d="M2.964 8C2.42 8 1.992 7.844 1.68 7.532C1.376 7.22 1.224 6.796 1.224 6.26V0.344H2.328V6.188C2.328 6.452 2.4 6.664 2.544 6.824C2.696 6.976 2.904 7.052 3.168 7.052H4.404V8H2.964ZM0.168 2.828V1.88H4.428V2.828H0.168ZM5.76272 8V4.316C5.76272 3.844 5.87072 3.412 6.08672 3.02C6.30272 2.628 6.61472 2.316 7.02272 2.084C7.43072 1.852 7.92272 1.736 8.49872 1.736C8.77872 1.736 9.05872 1.776 9.33872 1.856C9.61872 1.928 9.87872 2.056 10.1187 2.24C10.3587 2.416 10.5507 2.656 10.6947 2.96H10.7067C10.8667 2.656 11.0667 2.416 11.3067 2.24C11.5467 2.056 11.8067 1.928 12.0867 1.856C12.3667 1.776 12.6507 1.736 12.9387 1.736C13.5067 1.736 13.9947 1.852 14.4027 2.084C14.8107 2.316 15.1227 2.628 15.3387 3.02C15.5547 3.412 15.6627 3.844 15.6627 4.316V8H14.5587V4.316C14.5587 4.012 14.4867 3.736 14.3427 3.488C14.1987 3.24 14.0027 3.044 13.7547 2.9C13.5147 2.756 13.2387 2.684 12.9267 2.684C12.6227 2.684 12.3427 2.76 12.0867 2.912C11.8307 3.056 11.6267 3.252 11.4747 3.5C11.3307 3.74 11.2587 4.012 11.2587 4.316V8H10.1547V4.316C10.1547 4.012 10.0787 3.74 9.92672 3.5C9.78272 3.252 9.58272 3.056 9.32672 2.912C9.07872 2.76 8.79872 2.684 8.48672 2.684C8.18272 2.684 7.90672 2.756 7.65872 2.9C7.41872 3.044 7.22672 3.24 7.08272 3.488C6.93872 3.736 6.86672 4.012 6.86672 4.316V8H5.76272Z" fill="#9C9EAD"/>
<path d="M18.2812 8.144C18.0612 8.144 17.8712 8.066 17.7112 7.91C17.5552 7.75 17.4772 7.56 17.4772 7.34C17.4772 7.112 17.5552 6.92 17.7112 6.764C17.8712 6.604 18.0612 6.524 18.2812 6.524C18.5092 6.524 18.7012 6.604 18.8572 6.764C19.0132 6.92 19.0912 7.112 19.0912 7.34C19.0912 7.56 19.0132 7.75 18.8572 7.91C18.7012 8.066 18.5092 8.144 18.2812 8.144Z" fill="white"/>
</svg>
