<svg xmlns="http://www.w3.org/2000/svg" xmlns:xlink="http://www.w3.org/1999/xlink" viewBox="0 0 112 33" fill="#fff" fill-rule="evenodd" stroke="#000" stroke-linecap="round" stroke-linejoin="round"><style><![CDATA[.B{fill:#ff6c37}]]></style><use xlink:href="#A" x=".5" y=".5"/><symbol id="A" overflow="visible"><g stroke="none" fill-rule="nonzero"><path d="M35.343 20.195v-6.93a.31.31 0 0 1 .091-.207.4.4 0 0 1 .259-.091h1.943c.578-.026 1.146.163 1.593.53a2.17 2.17 0 0 1 .596 1.645v.1a2.19 2.19 0 0 1-.609 1.697 2.36 2.36 0 0 1-1.606.544h-1.4v2.72c.004.093-.046.18-.13.22a.57.57 0 0 1-.609 0 .25.25 0 0 1-.13-.22zm.868-3.393h1.4a1.29 1.29 0 0 0 .997-.363c.258-.306.388-.7.363-1.1v-.13a1.53 1.53 0 0 0-.363-1.088c-.265-.258-.628-.4-.997-.363h-1.4zm6.63 1.515v-3.108a2.19 2.19 0 0 1 .609-1.697 2.67 2.67 0 0 1 3.225 0c.443.448.666 1.07.6 1.697v3.108a2.15 2.15 0 0 1-.609 1.71 2.67 2.67 0 0 1-3.225 0 2.2 2.2 0 0 1-.609-1.71zm.868 0c0 .97.453 1.464 1.295 1.464.373.03.742-.1 1-.363a1.49 1.49 0 0 0 .35-1.101v-3.108a1.45 1.45 0 0 0-.35-1.088 1.29 1.29 0 0 0-1-.363c-.907 0-1.295.48-1.295 1.45zm6.684 1.126a.49.49 0 0 1 .117-.324c.053-.088.144-.145.246-.155a.45.45 0 0 1 .246.13l.298.285a1.3 1.3 0 0 0 .48.298 2.2 2.2 0 0 0 .764.13 1.62 1.62 0 0 0 1.049-.337 1.18 1.18 0 0 0 .376-.945c.02-.342-.108-.677-.35-.92a2.24 2.24 0 0 0-.842-.544l-1.088-.4a2.16 2.16 0 0 1-.842-.648c-.248-.322-.372-.72-.35-1.127-.01-.327.062-.652.207-.945a1.43 1.43 0 0 1 .544-.596 2.45 2.45 0 0 1 .712-.298 3.33 3.33 0 0 1 .803-.104c.414 0 .825.065 1.217.194s.583.298.583.492a.53.53 0 0 1-.104.311c-.05.104-.156.17-.272.168a2.76 2.76 0 0 1-.453-.181c-.303-.128-.63-.194-.958-.194a1.8 1.8 0 0 0-1.01.246.92.92 0 0 0-.389.816c-.01.297.113.582.337.777a2.74 2.74 0 0 0 .855.466l1 .4a2.1 2.1 0 0 1 1.179 1.995 2.04 2.04 0 0 1-.61 1.606 2.45 2.45 0 0 1-1.645.544 2.9 2.9 0 0 1-1.541-.389c-.4-.26-.57-.518-.57-.75zm6.994-6.087a.4.4 0 0 1 .091-.272.26.26 0 0 1 .22-.117h4.196c.092-.003.18.04.233.117a.48.48 0 0 1 .078.272c.001.096-.026.2-.078.272a.28.28 0 0 1-.233.13h-1.645v6.476c.001.092-.05.177-.13.22a.57.57 0 0 1-.609 0 .25.25 0 0 1-.13-.22v-6.476h-1.684a.26.26 0 0 1-.22-.117.48.48 0 0 1-.104-.285zm7.745 6.838v-6.787c-.02-.1.004-.203.062-.286s.148-.14.25-.154h.13c.26 0 .518.18.686.544l1.62 3.108 1.632-3.108c.194-.363.427-.544.686-.544.204-.03.394.108.427.3.013.033.013.07 0 .104v6.787c.01.094-.036.184-.117.233-.2.104-.42.104-.6 0-.088-.043-.14-.136-.13-.233V14.77l-1.555 2.973c-.054.147-.193.245-.35.246-.146-.006-.272-.105-.3-.246l-1.62-3.005v5.466a.22.22 0 0 1-.117.22c-.1.06-.2.095-.298.104-.106.002-.2-.03-.298-.1a.22.22 0 0 1-.091-.233zm8.457-.052c-.006-.026-.006-.052 0-.078l2.098-6.787c.065-.207.233-.3.518-.3s.466.104.518.3l2.137 6.812c-.01.1-.074.205-.168.26-.114.066-.244.102-.376.104-.137.02-.268-.063-.3-.194l-.44-1.45h-2.72l-.453 1.515c-.038.135-.173.22-.3.194a.68.68 0 0 1-.35-.104c-.104-.05-.17-.156-.168-.272zm1.5-2.072h2.305l-1.166-3.885zm6.8 2.124v-6.93c0-.194.13-.298.427-.298.133-.002.262.044.363.13a1.3 1.3 0 0 1 .298.414l2.6 5.025v-5.27c-.001-.092.05-.177.13-.22.2-.104.42-.104.6 0a.25.25 0 0 1 .13.22v6.93c.001.092-.05.177-.13.22-.087.06-.192.093-.298.1-.248-.013-.466-.17-.557-.4l-2.68-5.18v5.27a.22.22 0 0 1-.117.22.57.57 0 0 1-.609 0c-.1-.025-.165-.12-.155-.22z"/><path d="M27.843 6.043a15.54 15.54 0 0 0-16.37-5.5C5.407 2.189.927 7.33.127 13.565a15.54 15.54 0 0 0 7.69 15.464c5.456 3.124 12.255 2.656 17.23-1.188 6.8-5.248 8.03-15.006 2.798-21.797z" class="B"/><path d="M20.785 9.904l-6.553 6.605-1.852-1.904c6.45-6.45 7.097-5.867 8.418-4.7z"/><path d="M14.231 16.69c-.058-.001-.113-.025-.155-.065l-1.865-1.865c-.087-.1-.087-.233 0-.324 6.346-6.346 7.227-6.06 8.73-4.7a.21.21 0 0 1 .078.168.18.18 0 0 1-.065.168l-6.553 6.553a.25.25 0 0 1-.168.065zm-1.528-2.072l1.528 1.528 6.217-6.217a1.4 1.4 0 0 0-1.839-.311c-1.127.518-2.94 2.046-5.906 5z" class="B"/><path d="M16.109 18.335l-1.786-1.812 6.553-6.476c1.76 1.723-.855 4.598-4.766 8.3z"/><path d="M16.109 18.568a.27.27 0 0 1-.155-.065l-1.813-1.787c-.027-.066-.027-.14 0-.207-.02-.054-.02-.114 0-.168l6.553-6.553c.095-.1.242-.1.337 0a2.01 2.01 0 0 1 .648 1.54c0 1.748-1.995 3.95-5.388 7.162-.045.045-.105.072-.168.078zm-1.45-2.072l1.464 1.464c2.6-2.46 5.05-4.973 5.077-6.683.014-.363-.106-.718-.337-.997z" class="B"/><path d="M12.431 14.643l1.295 1.295c.017.015.026.036.026.058s-.01.044-.026.058l-2.72.583a.26.26 0 0 1-.233-.44l1.593-1.58s.052 0 .078.026z"/><path d="M10.929 16.898c-.176-.002-.337-.095-.427-.246a.49.49 0 0 1 .091-.583l1.58-1.593a.31.31 0 0 1 .414 0l1.295 1.295c.077.073.107.183.078.285a.3.3 0 0 1-.22.207l-2.72.583zm1.45-1.97l-1.464 1.464 2.422-.518zm.13-.13z" class="B"/><path d="M24.269 6.265c-.937-.902-2.408-.94-3.4-.086s-1.15 2.315-.388 3.37a2.51 2.51 0 0 0 3.325.68l-1.76-1.76z"/><path d="M22.52 10.823c-1.1-.014-2.087-.685-2.504-1.704a2.75 2.75 0 0 1 .588-2.972 2.77 2.77 0 0 1 3.885 0 .22.22 0 0 1 0 .337l-2.098 1.982 1.593 1.554a.22.22 0 0 1 .065.194.23.23 0 0 1-.104.168 2.81 2.81 0 0 1-1.425.427zm0-5.025a2.28 2.28 0 0 0-1.606 3.885 2.27 2.27 0 0 0 2.513.48l-1.528-1.528c-.05-.04-.078-.1-.078-.162s.03-.123.078-.162l2.02-2.033a2.32 2.32 0 0 0-1.399-.479z" class="B"/><path d="M24.308 6.303l-2.202 2.202 1.76 1.76c.177-.102.342-.224.492-.363a2.59 2.59 0 0 0-.039-3.601z"/><path d="M23.815 10.461a.19.19 0 0 1-.155-.065l-1.76-1.76c-.05-.04-.078-.1-.078-.162s.03-.123.078-.162l2.202-2.163c.043-.065.116-.104.194-.104s.15.04.194.104a2.72 2.72 0 0 1 0 3.885 2.38 2.38 0 0 1-.518.414c-.048.024-.104.03-.155.013zM22.39 8.466l1.464 1.464c.1-.07.196-.148.285-.233a2.29 2.29 0 0 0 .673-1.619 2.23 2.23 0 0 0-.557-1.476z" class="B"/><path d="M21.057 10.177c-.364-.342-.93-.342-1.295 0l-5.867 5.854.97.984 6.217-5.44a.96.96 0 0 0-.013-1.399z"/><path d="M14.823 17.247c-.058-.001-.113-.025-.155-.065l-.984-.984c-.087-.1-.087-.233 0-.324l5.867-5.828a1.19 1.19 0 0 1 2.033.881c-.013.327-.158.635-.4.855l-6.217 5.44a.22.22 0 0 1-.155.039zm-.686-1.217l.648.648 6.087-5.3a.71.71 0 0 0 .246-.518c.008-.2-.073-.395-.22-.53-.283-.282-.74-.282-1.023 0z" class="B"/><path d="M9.349 22.7a.13.13 0 0 0 0 .155l.26 1.127c.022.134-.042.268-.16.335s-.267.052-.37-.037l-1.774-1.7 5.53-5.57h1.917l1.295 1.295a29.39 29.39 0 0 1-6.696 4.404z"/><path d="M9.223 24.603c-.147-.003-.286-.063-.4-.168l-1.684-1.684c-.05-.04-.078-.1-.078-.162s.03-.123.078-.162l5.57-5.57a.22.22 0 0 1 .117-.065h1.943a.23.23 0 0 1 .155 0l1.295 1.295c.05.046.074.114.065.18.002.065-.027.128-.078.168l-.104.1c-2.029 1.691-4.261 3.123-6.644 4.261l.26 1.036c.04.164.002.337-.1.47s-.26.213-.43.216zm-1.58-2.033l1.528 1.554c.03.026.074.026.104 0 .02-.027.02-.064 0-.1l-.26-1.127c-.042-.167.04-.34.194-.414a31.85 31.85 0 0 0 6.476-4.17l-1.062-1.053h-1.736zm1.865.233z" class="B"/><path d="M5.968 23.903l1.295-1.295 1.995 1.995-3.173-.22a.26.26 0 0 1-.117-.479z"/><path d="M9.297 24.798l-3.16-.22a.49.49 0 0 1-.311-.829l1.295-1.295c.1-.087.233-.087.324 0l1.982 1.982a.22.22 0 0 1 0 .259c-.03.048-.076.085-.13.104zm-3.16-.725l2.6.168-1.425-1.334z" class="B"/><path d="M14.931 17.157l-2.616.4 1.515-1.502z"/><path d="M12.315 17.803a.22.22 0 0 1-.207-.13.22.22 0 0 1 0-.259l1.502-1.515c.095-.1.242-.1.337 0l1.1 1.1a.22.22 0 0 1 0 .233.22.22 0 0 1-.181.168l-2.6.4zm1.515-1.425l-.842.842 1.45-.22z" class="B"/><path d="M14.931 17.157l-1.813.233c-.1.023-.204-.023-.255-.112s-.037-.202.034-.276l.945-.945z"/><path d="M13.053 17.636a.48.48 0 0 1-.414-.246c-.102-.182-.07-.4.078-.557l.945-.945c.095-.1.242-.1.337 0l1.1 1.1c.067.063.1.16.06.247s-.1.147-.202.154l-1.813.233zm0-.48l1.373-.168-.6-.6-.777.777zm11.268-9.364c-.05-.085-.156-.118-.246-.078-.043.022-.076.06-.1.107s-.01.096.013.14a.56.56 0 0 1-.065.583c-.034.032-.053.076-.053.123s.02.1.053.123c.033.013.07.013.104 0 .06.016.126-.004.168-.052.218-.266.263-.634.117-.945zm62.288 5.362l-1.53 3.295c-.14.278-.233.648-.5.648-.372 0-.417-.372-.557-.695l-1.252-2.737c-.093-.14-.093-.417-.278-.372-.233.047-.185.324-.185.5v5.613c0 .278 0 .557-.047.835s-.233.464-.5.464c-.278-.047-.372-.233-.417-.464v-8.722c0-.372-.093-.88.324-1.02.464-.14.742.233.927.648l1.425 3.155c.14.278.185.777.557.835.417 0 .464-.557.604-.835l1.425-3.062c.185-.417.417-.835.927-.742.5.14.372.648.372 1.067v8.073c0 .417.14 1.067-.464 1.067-.648 0-.5-.648-.5-1.114v-5.336c-.047-.372.047-.742-.324-1.114zm19.903.233c-.278.278-.185.648-.185.974v5.52c0 .324.093.835-.372.835-.5.047-.5-.464-.5-.835v-8.538c0-.324-.047-.742.324-.835.417-.14.648.185.835.557l2.273 5.058c.14.372.324.695.464 1.067.093.185.093.464.372.372.233-.093.185-.372.185-.557v-5.44c0-.233 0-.417.047-.648.047-.324.233-.464.5-.464.278.047.372.278.372.557v8.583c0 .372.14.88-.324 1.02-.5.185-.695-.324-.88-.742l-2.598-5.753c-.14-.278-.185-.604-.5-.742zm-52.657 2.18c-.047 1.02.047 1.995-.093 3.015-.233 1.425-1.02 2.134-2.46 2.134-1.53 0-2.413-.648-2.598-2.088-.233-2.088-.278-4.222 0-6.3.185-1.347 1.114-1.995 2.505-1.995s2.273.695 2.505 1.995c.233 1.114.093 2.18.14 3.247zm-.927 0v-2.364c-.047-1.204-.695-1.904-1.76-1.856-1.02 0-1.624.648-1.684 1.856v4.792c.047 1.204.648 1.856 1.684 1.904 1.067 0 1.716-.648 1.76-1.904.047-.777 0-1.577 0-2.413zm46.755 4.5c0 .324-.047.557-.324.604-.233.047-.417 0-.5-.278l-.185-.604c-.417-1.425-.417-1.425-1.684-1.425h-.407c-1.577 0-1.577 0-2.134 1.684-.093.324-.14.777-.604.648-.464-.185-.324-.648-.233-1.02l2.273-8.398c.14-.417.185-1.02.777-.974.5.047.604.557.695.974l2.134 7.978c.093.278.14.557.185.835zm-3.108-2.598h.464c1.02 0 1.067-.047.742-1.204l-.88-3.294c-.047-.233 0-.557-.278-.557s-.324.324-.372.604l-.742 2.785c-.464 1.684-.417 1.684 1.067 1.684zm-59.05-1.9v-4.3c0-.695.233-.927.777-.927h1.577c2.134.047 2.923 1.02 2.875 3.48-.047 1.684-.88 2.645-2.33 2.737-.417 0-.777.047-1.204 0-.648-.047-.88.278-.835.974.047.835 0 1.684 0 2.46 0 .324-.047.695-.464.695s-.417-.372-.417-.742v-4.363zm2.18.14c1.347 0 1.856-.324 2.088-1.3s.233-1.904-.464-2.645c-.742-.742-1.716-.417-2.598-.372-.324 0-.324.417-.324.742v2.088c0 1.484 0 1.484 1.3 1.484zm22.406 5.103c-.974 0-1.76-.185-2.366-.927-.185-.233-.417-.557-.14-.88.233-.278.5-.093.695.14.557.604 1.16.777 1.904.742.695-.047 1.204-.372 1.484-1.16.275-.718.113-1.53-.417-2.088-.5-.557-1.16-.777-1.8-1.114-.927-.417-1.624-1.02-1.716-2.273-.14-1.684.604-2.598 2.228-2.923.695-.14 1.347.047 1.948.278.324.093.604.372.464.777-.14.464-.464.278-.742.14-.604-.324-1.252-.324-1.856-.233-.5.093-.974.417-1.067 1.067s0 1.204.464 1.624c.604.5 1.3.695 1.948 1.02 1.02.5 1.577 1.392 1.577 2.7 0 1.204-.278 2.134-1.3 2.737-.464.324-.974.278-1.3.372zm10.162-4.872v-3.572c.047-.88-.278-1.16-.974-1.067-.278.047-.604 0-.88 0s-.464-.14-.464-.5c0-.278.185-.464.417-.464h4.732c.233 0 .417.14.417.417 0 .324-.185.5-.464.5-.324 0-.695.047-1.02 0-.648-.047-.835.278-.835.974v7.6c0 .372-.047.777-.464.777-.464 0-.464-.417-.464-.777v-3.885z" class="B"/></g></symbol></svg>