<svg width="1025" height="1025" viewBox="0 0 1025 1025" fill="none" xmlns="http://www.w3.org/2000/svg">
<g clip-path="url(#clip0_770_1617)">
<rect x="0.72345" y="0.40625" width="1024" height="1024" rx="150" fill="#162F1C"/>
<g filter="url(#filter0_d_770_1617)">
<path d="M0.72345 -49.3281H1024.72V610.672C1024.72 743.22 917.272 850.672 784.723 850.672H240.723C108.175 850.672 0.72345 743.22 0.72345 610.672V-49.3281Z" fill="#346E41"/>
</g>
<g filter="url(#filter1_d_770_1617)">
<path d="M0.72345 -269.594H1024.72V390.406C1024.72 522.955 917.272 630.406 784.723 630.406H240.723C108.175 630.406 0.72345 522.955 0.72345 390.406V-269.594Z" fill="#52AD65" fill-opacity="0.85" shape-rendering="crispEdges"/>
</g>
<g filter="url(#filter2_d_770_1617)">
<path d="M0.72345 -499.594H1024.72V160.406C1024.72 292.955 917.272 400.406 784.723 400.406H240.723C108.175 400.406 0.72345 292.955 0.72345 160.406V-499.594Z" fill="#71BC81"/>
</g>
<g filter="url(#filter3_d_770_1617)">
<path d="M0.72345 -742.594H1024.72V-82.5938C1024.72 49.9546 917.272 157.406 784.723 157.406H240.723C108.175 157.406 0.72345 49.9546 0.72345 -82.5938V-742.594Z" fill="#B0DAB9"/>
</g>
<path d="M660.095 349.41C639.095 337.91 617.595 328.41 595.595 320.91C574.095 313.41 553.845 309.66 534.845 309.66C511.345 309.66 492.845 314.41 479.345 323.91C465.845 333.41 459.095 347.66 459.095 366.66C459.095 379.66 464.095 391.41 474.095 401.91C484.595 411.91 497.845 420.91 513.845 428.91C530.345 436.91 547.345 444.16 564.845 450.66C580.845 456.66 596.595 463.91 612.095 472.41C628.095 480.41 642.345 490.66 654.845 503.16C667.345 515.16 677.345 530.41 684.845 548.91C692.345 566.91 696.095 589.16 696.095 615.66C696.095 643.66 688.845 669.66 674.345 693.66C659.845 717.66 638.595 737.16 610.595 752.16C582.595 766.66 548.095 773.91 507.095 773.91C486.095 773.91 464.595 771.91 442.595 767.91C421.095 763.41 399.845 756.91 378.845 748.41C357.845 739.41 337.595 728.16 318.095 714.66L366.095 629.91C379.095 639.41 393.095 647.91 408.095 655.41C423.595 662.41 439.095 667.91 454.595 671.91C470.095 675.91 484.345 677.91 497.345 677.91C510.345 677.91 523.345 676.16 536.345 672.66C549.845 668.66 560.845 662.16 569.345 653.16C578.345 644.16 582.845 631.66 582.845 615.66C582.845 604.66 579.095 594.66 571.595 585.66C564.595 576.66 554.845 568.41 542.345 560.91C530.345 553.41 517.095 546.91 502.595 541.41C485.595 534.91 468.095 527.41 450.095 518.91C432.095 510.41 415.095 500.16 399.095 488.16C383.595 475.66 370.845 460.41 360.845 442.41C351.345 423.91 346.595 401.41 346.595 374.91C346.595 342.91 353.595 315.16 367.595 291.66C382.095 268.16 402.345 249.66 428.345 236.16C454.345 222.16 484.345 214.41 518.345 212.91C562.845 212.91 598.845 218.16 626.345 228.66C654.345 239.16 679.345 251.66 701.345 266.16L660.095 349.41Z" fill="white"/>
<path d="M660.095 349.41L638.481 388.879L679.602 411.398L700.417 369.389L660.095 349.41ZM595.595 320.91L580.774 363.399L580.924 363.452L581.075 363.503L595.595 320.91ZM479.345 323.91L453.448 287.109H453.448L479.345 323.91ZM474.095 401.91L441.509 432.945L442.266 433.739L443.061 434.496L474.095 401.91ZM513.845 428.91L493.721 469.159L493.966 469.282L494.213 469.402L513.845 428.91ZM564.845 450.66L580.646 408.525L580.58 408.501L580.514 408.476L564.845 450.66ZM612.095 472.41L590.458 511.867L591.207 512.277L591.971 512.659L612.095 472.41ZM654.845 503.16L623.026 534.98L623.35 535.305L623.682 535.623L654.845 503.16ZM684.845 548.91L643.142 565.817L643.224 566.018L643.307 566.218L684.845 548.91ZM674.345 693.66L712.862 716.93H712.862L674.345 693.66ZM610.595 752.16L631.289 792.12L631.568 791.975L631.845 791.827L610.595 752.16ZM442.595 767.91L433.377 811.956L433.96 812.078L434.546 812.184L442.595 767.91ZM378.845 748.41L361.119 789.772L361.539 789.951L361.962 790.123L378.845 748.41ZM318.095 714.66L278.94 692.483L258.678 728.257L292.481 751.659L318.095 714.66ZM366.095 629.91L392.646 593.578L351.844 563.761L326.94 607.733L366.095 629.91ZM408.095 655.41L387.971 695.659L388.765 696.056L389.574 696.422L408.095 655.41ZM454.595 671.91L465.84 628.338L454.595 671.91ZM536.345 672.66L548.044 716.113L548.589 715.966L549.129 715.806L536.345 672.66ZM569.345 653.16L537.526 621.34L537.071 621.795L536.63 622.262L569.345 653.16ZM571.595 585.66L536.075 613.287L536.54 613.886L537.026 614.468L571.595 585.66ZM542.345 560.91L518.496 599.07L518.842 599.287L519.193 599.497L542.345 560.91ZM502.595 541.41L486.524 583.442L486.58 583.464L486.636 583.485L502.595 541.41ZM450.095 518.91L430.88 559.601H430.88L450.095 518.91ZM399.095 488.16L370.847 523.189L371.462 523.685L372.095 524.16L399.095 488.16ZM360.845 442.41L320.815 462.966L321.151 463.621L321.508 464.264L360.845 442.41ZM367.595 291.66L329.299 268.03L329.115 268.328L328.936 268.629L367.595 291.66ZM428.345 236.16L449.082 276.097L449.382 275.942L449.68 275.781L428.345 236.16ZM518.345 212.91V167.91H517.353L516.362 167.954L518.345 212.91ZM626.345 228.66L610.294 270.7L610.419 270.748L610.545 270.795L626.345 228.66ZM701.345 266.16L741.667 286.139L759.334 250.485L726.11 228.587L701.345 266.16ZM681.71 309.941C658.507 297.235 634.638 286.677 610.116 278.317L581.075 363.503C600.553 370.143 619.684 378.585 638.481 388.879L681.71 309.941ZM610.417 278.421C585.071 269.579 559.78 264.66 534.845 264.66V354.66C547.911 354.66 563.12 357.241 580.774 363.399L610.417 278.421ZM534.845 264.66C505.855 264.66 477.125 270.447 453.448 287.109L505.243 360.711C508.566 358.373 516.836 354.66 534.845 354.66V264.66ZM453.448 287.109C426.029 306.404 414.095 335.563 414.095 366.66H504.095C504.095 364.564 504.282 363.136 504.462 362.253C504.636 361.392 504.808 361.025 504.826 360.987C504.836 360.966 504.794 361.046 504.729 361.122C504.671 361.19 504.78 361.037 505.243 360.711L453.448 287.109ZM414.095 366.66C414.095 392.586 424.539 415.126 441.509 432.945L506.682 370.876C504.903 369.008 504.374 367.889 504.252 367.603C504.167 367.402 504.095 367.217 504.095 366.66H414.095ZM443.061 434.496C457.449 448.2 474.619 459.608 493.721 469.159L533.97 388.661C521.072 382.212 511.742 375.621 505.13 369.324L443.061 434.496ZM494.213 469.402C512.03 478.04 530.354 485.853 549.177 492.844L580.514 408.476C564.337 402.468 548.661 395.78 533.478 388.419L494.213 469.402ZM549.045 492.795C562.97 498.017 576.773 504.362 590.458 511.867L633.733 432.954C616.418 423.458 598.721 415.303 580.646 408.525L549.045 492.795ZM591.971 512.659C603.697 518.523 613.987 525.941 623.026 534.98L686.665 471.34C670.704 455.379 652.494 442.298 632.22 432.161L591.971 512.659ZM623.682 535.623C630.969 542.619 637.662 552.298 643.142 565.817L726.549 532.003C717.029 508.522 703.722 487.702 686.009 470.698L623.682 535.623ZM643.307 566.218C647.86 577.146 651.095 593.098 651.095 615.66H741.095C741.095 585.222 736.83 556.674 726.384 531.602L643.307 566.218ZM651.095 615.66C651.095 635.445 646.094 653.4 635.829 670.39L712.862 716.93C731.597 685.92 741.095 651.875 741.095 615.66H651.095ZM635.829 670.39C626.041 686.592 611.188 700.792 589.346 712.494L631.845 791.827C666.003 773.528 693.65 748.728 712.862 716.93L635.829 670.39ZM589.902 712.2C569.926 722.545 542.984 728.91 507.095 728.91V818.91C553.207 818.91 595.265 810.775 631.289 792.12L589.902 712.2ZM507.095 728.91C488.963 728.91 470.16 727.184 450.645 723.636L434.546 812.184C459.031 816.636 483.228 818.91 507.095 818.91V728.91ZM451.814 723.865C433.014 719.93 414.326 714.225 395.729 706.698L361.962 790.123C385.365 799.595 409.177 806.891 433.377 811.956L451.814 723.865ZM396.572 707.049C378.444 699.279 360.827 689.512 343.71 677.661L292.481 751.659C314.364 766.808 337.247 779.541 361.119 789.772L396.572 707.049ZM357.251 736.837L405.251 652.087L326.94 607.733L278.94 692.483L357.251 736.837ZM339.545 666.243C354.656 677.285 370.816 687.082 387.971 695.659L428.22 615.161C415.375 608.738 403.535 601.535 392.646 593.578L339.545 666.243ZM389.574 696.422C407.277 704.417 425.207 710.8 443.351 715.483L465.84 628.338C452.984 625.02 439.914 620.404 426.617 614.398L389.574 696.422ZM443.351 715.483C461.713 720.221 479.797 722.91 497.345 722.91V632.91C488.894 632.91 478.478 631.599 465.84 628.338L443.351 715.483ZM497.345 722.91C514.435 722.91 531.366 720.603 548.044 716.113L524.647 629.207C515.325 631.717 506.256 632.91 497.345 632.91V722.91ZM549.129 715.806C569.173 709.867 587.399 699.583 602.061 684.058L536.63 622.262C534.292 624.737 530.518 627.453 523.561 629.514L549.129 715.806ZM601.165 684.98C620.645 665.5 627.845 640.36 627.845 615.66H537.845C537.845 619.495 537.302 621.316 537.131 621.793C537.049 622.02 537.033 621.997 537.142 621.824C537.253 621.646 537.396 621.47 537.526 621.34L601.165 684.98ZM627.845 615.66C627.845 593.417 619.932 573.371 606.165 556.852L537.026 614.468C537.455 614.984 537.686 615.339 537.796 615.525C537.903 615.705 537.918 615.764 537.898 615.711C537.877 615.655 537.855 615.577 537.843 615.508C537.831 615.442 537.845 615.48 537.845 615.66H627.845ZM607.116 558.033C595.902 543.615 581.494 531.921 565.498 522.323L519.193 599.497C528.197 604.9 533.289 609.706 536.075 613.287L607.116 558.033ZM566.195 522.75C551.475 513.55 535.547 505.781 518.555 499.335L486.636 583.485C498.644 588.04 509.216 593.27 518.496 599.07L566.195 522.75ZM518.667 499.378C502.825 493.321 486.375 486.277 469.311 478.219L430.88 559.601C449.816 568.543 468.366 576.5 486.524 583.442L518.667 499.378ZM469.311 478.219C454.07 471.022 439.677 462.346 426.095 452.16L372.095 524.16C390.514 537.974 410.121 549.798 430.88 559.601L469.311 478.219ZM427.344 453.132C416.508 444.393 407.467 433.668 400.183 420.556L321.508 464.264C334.224 487.152 350.683 506.928 370.847 523.189L427.344 453.132ZM400.876 421.854C395.414 411.218 391.595 396.168 391.595 374.91H301.595C301.595 406.653 307.277 436.603 320.815 462.966L400.876 421.854ZM391.595 374.91C391.595 349.625 397.064 330.119 406.255 314.691L328.936 268.629C310.127 300.201 301.595 336.195 301.595 374.91H391.595ZM405.892 315.29C415.857 299.139 429.844 286.086 449.082 276.097L407.609 196.223C374.847 213.234 348.334 237.181 329.299 268.03L405.892 315.29ZM449.68 275.781C468.866 265.45 492.067 259.113 520.329 257.866L516.362 167.954C476.624 169.707 439.825 178.87 407.011 196.539L449.68 275.781ZM518.345 257.91C559.883 257.91 589.841 262.891 610.294 270.7L642.397 186.62C607.85 173.429 565.808 167.91 518.345 167.91V257.91ZM610.545 270.795C635.81 280.27 657.736 291.313 676.581 303.733L726.11 228.587C700.955 212.008 672.88 198.051 642.146 186.525L610.545 270.795ZM661.024 246.181L619.774 329.431L700.417 369.389L741.667 286.139L661.024 246.181Z" fill="#B0DAB9" fill-opacity="0.25"/>
</g>
<defs>
<filter id="filter0_d_770_1617" x="-24.2766" y="-70.3281" width="1074" height="950" filterUnits="userSpaceOnUse" color-interpolation-filters="sRGB">
<feFlood flood-opacity="0" result="BackgroundImageFix"/>
<feColorMatrix in="SourceAlpha" type="matrix" values="0 0 0 0 0 0 0 0 0 0 0 0 0 0 0 0 0 0 127 0" result="hardAlpha"/>
<feOffset dy="4"/>
<feGaussianBlur stdDeviation="12.5"/>
<feComposite in2="hardAlpha" operator="out"/>
<feColorMatrix type="matrix" values="0 0 0 0 0 0 0 0 0 0 0 0 0 0 0 0 0 0 0.1 0"/>
<feBlend mode="normal" in2="BackgroundImageFix" result="effect1_dropShadow_770_1617"/>
<feBlend mode="normal" in="SourceGraphic" in2="effect1_dropShadow_770_1617" result="shape"/>
</filter>
<filter id="filter1_d_770_1617" x="-24.2766" y="-290.594" width="1074" height="950" filterUnits="userSpaceOnUse" color-interpolation-filters="sRGB">
<feFlood flood-opacity="0" result="BackgroundImageFix"/>
<feColorMatrix in="SourceAlpha" type="matrix" values="0 0 0 0 0 0 0 0 0 0 0 0 0 0 0 0 0 0 127 0" result="hardAlpha"/>
<feOffset dy="4"/>
<feGaussianBlur stdDeviation="12.5"/>
<feComposite in2="hardAlpha" operator="out"/>
<feColorMatrix type="matrix" values="0 0 0 0 0 0 0 0 0 0 0 0 0 0 0 0 0 0 0.1 0"/>
<feBlend mode="normal" in2="BackgroundImageFix" result="effect1_dropShadow_770_1617"/>
<feBlend mode="normal" in="SourceGraphic" in2="effect1_dropShadow_770_1617" result="shape"/>
</filter>
<filter id="filter2_d_770_1617" x="-24.2766" y="-520.594" width="1074" height="950" filterUnits="userSpaceOnUse" color-interpolation-filters="sRGB">
<feFlood flood-opacity="0" result="BackgroundImageFix"/>
<feColorMatrix in="SourceAlpha" type="matrix" values="0 0 0 0 0 0 0 0 0 0 0 0 0 0 0 0 0 0 127 0" result="hardAlpha"/>
<feOffset dy="4"/>
<feGaussianBlur stdDeviation="12.5"/>
<feComposite in2="hardAlpha" operator="out"/>
<feColorMatrix type="matrix" values="0 0 0 0 0 0 0 0 0 0 0 0 0 0 0 0 0 0 0.1 0"/>
<feBlend mode="normal" in2="BackgroundImageFix" result="effect1_dropShadow_770_1617"/>
<feBlend mode="normal" in="SourceGraphic" in2="effect1_dropShadow_770_1617" result="shape"/>
</filter>
<filter id="filter3_d_770_1617" x="-24.2766" y="-763.594" width="1074" height="950" filterUnits="userSpaceOnUse" color-interpolation-filters="sRGB">
<feFlood flood-opacity="0" result="BackgroundImageFix"/>
<feColorMatrix in="SourceAlpha" type="matrix" values="0 0 0 0 0 0 0 0 0 0 0 0 0 0 0 0 0 0 127 0" result="hardAlpha"/>
<feOffset dy="4"/>
<feGaussianBlur stdDeviation="12.5"/>
<feComposite in2="hardAlpha" operator="out"/>
<feColorMatrix type="matrix" values="0 0 0 0 0 0 0 0 0 0 0 0 0 0 0 0 0 0 0.1 0"/>
<feBlend mode="normal" in2="BackgroundImageFix" result="effect1_dropShadow_770_1617"/>
<feBlend mode="normal" in="SourceGraphic" in2="effect1_dropShadow_770_1617" result="shape"/>
</filter>
<clipPath id="clip0_770_1617">
<rect x="0.72345" y="0.40625" width="1024" height="1024" rx="150" fill="white"/>
</clipPath>
</defs>
</svg>
